<svg width="92" height="16" viewBox="0 0 92 16" fill="none" xmlns="http://www.w3.org/2000/svg">
<path fill-rule="evenodd" clip-rule="evenodd" d="M66 6.60862L62.9604 14.2087C62.5278 15.2899 61.4735 16 60.2999 16C60.2528 16 60.2056 16 60.1578 16C58.8664 16 57.7349 15.1424 57.3965 13.9072C56.6182 11.0693 55.3248 6.35096 55.3248 6.35096C55.3248 6.35096 54.0314 11.0693 53.2534 13.9072C52.9147 15.1424 51.7832 16 50.4916 16C50.4418 16 50.3924 16 50.3432 16C49.1699 16 48.1153 15.2901 47.683 14.2087C46.0125 10.0322 42 0 42 0H45.558L50.5141 12.3911C50.5141 12.3911 52.5878 4.65184 53.4577 1.4062C53.6799 0.576982 54.4367 0 55.3018 0H55.3483C56.2135 0 56.9703 0.576982 57.1924 1.40566C58.0616 4.64967 60.1333 12.3812 60.1333 12.3812L64.2212 2.16074L66 6.60862ZM83.4006 16C82.0922 16 80.9457 15.1424 80.6024 13.9072C79.814 11.0693 78.503 6.35096 78.503 6.35096C78.503 6.35096 77.1922 11.0693 76.4039 13.9072C76.0606 15.1424 74.914 16 73.6052 16C73.5547 16 73.5048 16 73.4547 16C72.2658 16 71.197 15.2901 70.759 14.2087C69.0662 10.0322 65 0 65 0C65 0 67.2083 0 68.1686 0C68.4324 0 68.6697 0.157852 68.7669 0.397794C69.6259 2.51695 73.6279 12.3911 73.6279 12.3911C73.6279 12.3911 75.7294 4.65184 76.6109 1.4062C76.836 0.576982 77.603 0 78.4797 0H78.5268C79.4035 0 80.1704 0.576982 80.3956 1.40566C81.2762 4.64967 83.3758 12.3812 83.3758 12.3812L88.3941 0H92C92 0 87.9338 10.0322 86.241 14.2087C85.8026 15.2899 84.7342 16 83.5449 16C83.497 16 83.449 16 83.4006 16ZM20 0H23V16H20V0ZM10.0075 16H0V0.00224983C3.34433 0.00224983 6.68865 -0.00281229 10.0333 0.00224983C13.0664 0.0168938 15.9866 1.88843 17.265 4.62252C18.331 6.90174 18.2331 9.69422 16.9996 11.8972C15.6198 14.3626 12.869 15.9953 10.0075 16ZM35.0074 16H25V0.00224983C28.3444 0.00224983 31.6887 -0.00281229 35.0335 0.00224983C38.0666 0.0168938 40.9868 1.88843 42.2652 4.62252C43.3309 6.90174 43.2331 9.69422 41.9998 11.8972C40.62 14.3626 37.8692 15.9953 35.0074 16ZM3 3.00792V12.9916C5.35023 12.9916 7.70082 13.0105 10.0514 12.9916C12.2781 12.9672 14.3816 11.2966 14.8798 9.11339C15.2319 7.57118 14.7976 5.8739 13.7447 4.68985C12.8209 3.65094 11.4522 3.02362 10.0514 3.00828C7.70082 2.98987 5.35023 3.00792 3 3.00792ZM28 3.00792V12.9916C30.3502 12.9916 32.7008 13.0105 35.0514 12.9916C37.2868 12.9672 39.398 11.2864 39.8864 9.08307C40.2267 7.54844 39.79 5.86524 38.7447 4.68985C37.8209 3.65094 36.4522 3.02362 35.0514 3.00828C32.7008 2.98987 30.3502 3.00792 28 3.00792Z" fill="white"/>
</svg>
